<svg xmlns="http://www.w3.org/2000/svg" xmlns:xlink="http://www.w3.org/1999/xlink" contentStyleType="text/css" data-diagram-type="ACTIVITY" height="1038px" preserveAspectRatio="none" style="width:557px;height:1038px;background:#FFFFFF;" version="1.1" viewBox="0 0 557 1038" width="557px" zoomAndPan="magnify"><?plantuml 1.2026.6?><defs/><g><rect fill="#FFFFFF" height="16.4883" style="stroke:#FFFFFF;stroke-width:1;" width="510.5688" x="20" y="16.4531"/><ellipse cx="146.8901" cy="47.9414" fill="#64748B" rx="10" ry="10" style="stroke:#64748B;stroke-width:1;"/><rect fill="#EFF6FF" height="77.4648" rx="6" ry="6" style="stroke:#93C5FD;stroke-width:1;" width="216.3643" x="38.708" y="77.9414"/><text fill="#1E40AF" font-family="Inter" font-size="14" font-weight="700" lengthAdjust="spacing" textLength="188.3643" x="52.708" y="105.4766">1. Approve general access</text><text fill="#1E40AF" font-family="Inter" font-size="14" lengthAdjust="spacing" textLength="169.0938" x="52.708" y="121.9648">Create AccessAttestation</text><text fill="#1E40AF" font-family="Inter" font-size="14" lengthAdjust="spacing" textLength="136.3291" x="52.708" y="138.4531">after off-ledger KYB</text><rect fill="#EFF6FF" height="77.4648" rx="6" ry="6" style="stroke:#93C5FD;stroke-width:1;" width="210.3486" x="41.7158" y="175.4063"/><text fill="#1E40AF" font-family="Inter" font-size="14" font-weight="700" lengthAdjust="spacing" textLength="182.3486" x="55.7158" y="202.9414">2. Grant per-vault access</text><text fill="#1E40AF" font-family="Inter" font-size="14" lengthAdjust="spacing" textLength="129.3428" x="55.7158" y="219.4297">Create VaultAccess</text><text fill="#1E40AF" font-family="Inter" font-size="14" lengthAdjust="spacing" textLength="180.5918" x="55.7158" y="235.918">referencing the attestation</text><rect fill="#EFF6FF" height="77.4648" rx="6" ry="6" style="stroke:#93C5FD;stroke-width:1;" width="186.252" x="53.7642" y="600.4375"/><text fill="#1E40AF" font-family="Inter" font-size="14" font-weight="700" lengthAdjust="spacing" textLength="151.8125" x="67.7642" y="627.9727">4. Accept the deposit</text><text fill="#1E40AF" font-family="Inter" font-size="14" lengthAdjust="spacing" textLength="158.252" x="67.7642" y="644.4609">Exercise AcceptDeposit</text><text fill="#1E40AF" font-family="Inter" font-size="14" lengthAdjust="spacing" textLength="128.1602" x="67.7642" y="660.9492">on DepositRequest</text><rect fill="#F1F5F9" height="60.9766" rx="6" ry="6" style="stroke:#CBD5E1;stroke-width:1;" width="241.7803" x="26" y="697.9023"/><text fill="#1E293B" font-family="Inter" font-size="14" lengthAdjust="spacing" textLength="80.0625" x="40" y="725.4375">Fetch active</text><text fill="#1E293B" font-family="Inter" font-size="14" font-weight="700" lengthAdjust="spacing" textLength="129.2881" x="124.4922" y="725.4375">AccessAttestation</text><text fill="#1E293B" font-family="Inter" font-size="14" lengthAdjust="spacing" textLength="204.2988" x="40" y="741.9258">Check manager and depositor</text><rect fill="#F0FDFA" height="206.9297" rx="6" ry="6" style="stroke:#99D6CC;stroke-width:1.5;" width="203.9277" x="44.9263" y="768.8789"/><path d="M59.356,768.8789 L59.356,778.3672 L49.356,788.3672 L44.9263,788.3672" fill="none" style="stroke:#99D6CC;stroke-width:1.5;"/><text fill="#0F766E" font-family="Inter" font-size="14" lengthAdjust="spacing" textLength="4.4297" x="47.9263" y="783.4141">&#160;</text><rect fill="#CCFBF1" height="77.4648" rx="6" ry="6" style="stroke:#5BBBA9;stroke-width:1;" width="183.9277" x="54.9263" y="805.3672"/><text fill="#115E59" font-family="Inter" font-size="14" font-weight="700" lengthAdjust="spacing" textLength="131.9883" x="68.9263" y="832.9023">Atomic settlement</text><text fill="#115E59" font-family="Inter" font-size="14" lengthAdjust="spacing" textLength="155.9277" x="68.9263" y="849.3906">Transfer locked tokens</text><text fill="#115E59" font-family="Inter" font-size="14" lengthAdjust="spacing" textLength="13.8359" x="68.9263" y="865.8789">to</text><text fill="#115E59" font-family="Inter" font-size="14" font-weight="700" lengthAdjust="spacing" textLength="100.6797" x="87.1919" y="865.8789">vault treasury</text><rect fill="#CCFBF1" height="60.9766" rx="6" ry="6" style="stroke:#5BBBA9;stroke-width:1;" width="147.2051" x="73.2876" y="902.832"/><text fill="#115E59" font-family="Inter" font-size="14" lengthAdjust="spacing" textLength="30.0303" x="87.2876" y="930.3672">Mint</text><text fill="#115E59" font-family="Inter" font-size="14" font-weight="700" lengthAdjust="spacing" textLength="39.9902" x="121.7476" y="930.3672">Share</text><text fill="#115E59" font-family="Inter" font-size="14" lengthAdjust="spacing" textLength="45.6299" x="87.2876" y="946.8555">for the</text><text fill="#115E59" font-family="Inter" font-size="14" font-weight="700" lengthAdjust="spacing" textLength="69.1455" x="137.3472" y="946.8555">depositor</text><ellipse cx="146.8901" cy="1006.8086" fill="none" rx="11" ry="11" style="stroke:#64748B;stroke-width:1;"/><ellipse cx="146.8901" cy="1006.8086" fill="#64748B" rx="6" ry="6" style="stroke:#64748B;stroke-width:1;"/><line style="stroke:#E2E8F0;stroke-width:1.5;" x1="20" x2="20" y1="16.4531" y2="1017.8086"/><rect fill="#EFF6FF" height="60.9766" rx="6" ry="6" style="stroke:#93C5FD;stroke-width:1;" width="247.4814" x="277.7803" y="291.1895"/><text fill="#1E40AF" font-family="Inter" font-size="14" font-weight="700" lengthAdjust="spacing" textLength="146.7334" x="291.7803" y="318.7246">3. Request a deposit</text><text fill="#1E40AF" font-family="Inter" font-size="14" lengthAdjust="spacing" textLength="219.4814" x="291.7803" y="335.2129">Exercise Deposit on VaultAccess</text><rect fill="#F1F5F9" height="60.9766" rx="6" ry="6" style="stroke:#CBD5E1;stroke-width:1;" width="241.7803" x="280.6309" y="372.166"/><text fill="#1E293B" font-family="Inter" font-size="14" lengthAdjust="spacing" textLength="80.0625" x="294.6309" y="399.7012">Fetch active</text><text fill="#1E293B" font-family="Inter" font-size="14" font-weight="700" lengthAdjust="spacing" textLength="129.2881" x="379.123" y="399.7012">AccessAttestation</text><text fill="#1E293B" font-family="Inter" font-size="14" lengthAdjust="spacing" textLength="204.2988" x="294.6309" y="416.1895">Check manager and depositor</text><rect fill="#F1F5F9" height="44.4883" rx="6" ry="6" style="stroke:#CBD5E1;stroke-width:1;" width="217.834" x="292.604" y="453.1426"/><text fill="#1E293B" font-family="Inter" font-size="14" lengthAdjust="spacing" textLength="189.834" x="306.604" y="480.6777">Lock tokens in an allocation</text><rect fill="#F1F5F9" height="44.4883" rx="6" ry="6" style="stroke:#CBD5E1;stroke-width:1;" width="190.2031" x="306.4194" y="517.6309"/><text fill="#1E293B" font-family="Inter" font-size="14" lengthAdjust="spacing" textLength="43.9824" x="320.4194" y="545.166">Create</text><text fill="#1E293B" font-family="Inter" font-size="14" font-weight="700" lengthAdjust="spacing" textLength="113.791" x="368.8315" y="545.166">DepositRequest</text><line style="stroke:#E2E8F0;stroke-width:1.5;" x1="271.7803" x2="271.7803" y1="16.4531" y2="1017.8086"/><line style="stroke:#E2E8F0;stroke-width:1.5;" x1="529.2617" x2="529.2617" y1="16.4531" y2="1017.8086"/><line style="stroke:#64748B;stroke-width:1.5;" x1="146.8901" x2="146.8901" y1="57.9414" y2="77.9414"/><polygon fill="#64748B" points="142.8901,67.9414,146.8901,77.9414,150.8901,67.9414,146.8901,71.9414" style="stroke:#64748B;stroke-width:1;stroke-linejoin:miter;stroke-miterlimit:10;"/><line style="stroke:#64748B;stroke-width:1.5;" x1="146.8901" x2="146.8901" y1="155.4063" y2="175.4063"/><polygon fill="#64748B" points="142.8901,165.4063,146.8901,175.4063,150.8901,165.4063,146.8901,169.4063" style="stroke:#64748B;stroke-width:1;stroke-linejoin:miter;stroke-miterlimit:10;"/><line style="stroke:#64748B;stroke-width:1.5;" x1="146.8901" x2="146.8901" y1="677.9023" y2="697.9023"/><polygon fill="#64748B" points="142.8901,687.9023,146.8901,697.9023,150.8901,687.9023,146.8901,691.9023" style="stroke:#64748B;stroke-width:1;stroke-linejoin:miter;stroke-miterlimit:10;"/><line style="stroke:#64748B;stroke-width:1.5;" x1="146.8901" x2="146.8901" y1="882.832" y2="902.832"/><polygon fill="#64748B" points="142.8901,892.832,146.8901,902.832,150.8901,892.832,146.8901,896.832" style="stroke:#64748B;stroke-width:1;stroke-linejoin:miter;stroke-miterlimit:10;"/><line style="stroke:#64748B;stroke-width:1.5;" x1="146.8901" x2="146.8901" y1="758.8789" y2="805.3672"/><polygon fill="#64748B" points="142.8901,795.3672,146.8901,805.3672,150.8901,795.3672,146.8901,799.3672" style="stroke:#64748B;stroke-width:1;stroke-linejoin:miter;stroke-miterlimit:10;"/><line style="stroke:#64748B;stroke-width:1.5;" x1="146.8901" x2="146.8901" y1="963.8086" y2="995.8086"/><polygon fill="#64748B" points="142.8901,985.8086,146.8901,995.8086,150.8901,985.8086,146.8901,989.8086" style="stroke:#64748B;stroke-width:1;stroke-linejoin:miter;stroke-miterlimit:10;"/><line style="stroke:#64748B;stroke-width:1.5;" x1="401.521" x2="401.521" y1="352.166" y2="372.166"/><polygon fill="#64748B" points="397.521,362.166,401.521,372.166,405.521,362.166,401.521,366.166" style="stroke:#64748B;stroke-width:1;stroke-linejoin:miter;stroke-miterlimit:10;"/><line style="stroke:#64748B;stroke-width:1.5;" x1="401.521" x2="401.521" y1="433.1426" y2="453.1426"/><polygon fill="#64748B" points="397.521,443.1426,401.521,453.1426,405.521,443.1426,401.521,447.1426" style="stroke:#64748B;stroke-width:1;stroke-linejoin:miter;stroke-miterlimit:10;"/><line style="stroke:#64748B;stroke-width:1.5;" x1="401.521" x2="401.521" y1="497.6309" y2="517.6309"/><polygon fill="#64748B" points="397.521,507.6309,401.521,517.6309,405.521,507.6309,401.521,511.6309" style="stroke:#64748B;stroke-width:1;stroke-linejoin:miter;stroke-miterlimit:10;"/><line style="stroke:#64748B;stroke-width:1.5;" x1="146.8901" x2="146.8901" y1="252.8711" y2="276.1895"/><line style="stroke:#64748B;stroke-width:1.5;" x1="146.8901" x2="401.521" y1="276.1895" y2="276.1895"/><line style="stroke:#64748B;stroke-width:1.5;" x1="401.521" x2="401.521" y1="276.1895" y2="291.1895"/><polygon fill="#64748B" points="397.521,281.1895,401.521,291.1895,405.521,281.1895,401.521,285.1895" style="stroke:#64748B;stroke-width:1;stroke-linejoin:miter;stroke-miterlimit:10;"/><text fill="#64748B" font-family="Inter" font-size="12" lengthAdjust="spacing" textLength="88.4824" x="150.8901" y="269.6895">Access granted</text><line style="stroke:#64748B;stroke-width:1.5;" x1="401.521" x2="401.521" y1="562.1191" y2="585.4375"/><line style="stroke:#64748B;stroke-width:1.5;" x1="401.521" x2="146.8901" y1="585.4375" y2="585.4375"/><line style="stroke:#64748B;stroke-width:1.5;" x1="146.8901" x2="146.8901" y1="585.4375" y2="600.4375"/><polygon fill="#64748B" points="142.8901,590.4375,146.8901,600.4375,150.8901,590.4375,146.8901,594.4375" style="stroke:#64748B;stroke-width:1;stroke-linejoin:miter;stroke-miterlimit:10;"/><text fill="#64748B" font-family="Inter" font-size="12" lengthAdjust="spacing" textLength="82.4063" x="405.521" y="578.9375">Request ready</text><text fill="#334155" font-family="Inter" font-size="14" font-weight="700" lengthAdjust="spacing" textLength="62.166" x="114.8071" y="29.9883">Manager</text><text fill="#334155" font-family="Inter" font-size="14" font-weight="700" lengthAdjust="spacing" textLength="70.9707" x="365.0356" y="29.9883">Depositor</text><?plantuml-src hLHVRzem47_FfpXrRv7A211Q2a9AGZnDQwUfhIPDuiLBZc0HxCmnRTdQxxvp4WeDT4-BU0Xd-_VlpfcKPflZrE694G_2R6U2PvgluOy3m9GqN_aQuRCqg9l2dVYDu0teNyYJLQRLHgQHofM63wnwQ6K7Lg6SskWndusgjMiXiQb6uSoFlTVg_L8aAubb2NNjjWRG4ZLulQfazJI7lRWtweTLzHjFKo6pMYJ03TUPaFMH5ojEQ_NOA3jW7muk1fVXAVQEtoOxsBkFP8TVFefrpYKUKyIz-99rss3z_i3pznHtjX_mK-LfWvS8dUJuNfGjsUsg1IYuDi889TzjHvVDMD3668rcmoXgg-soY-4mFjqGIzP9CH7bFyXYneRLaBmbwqS-cnqtTT0Ds0wvH6DoNACqxs574GkPryRsmp0CHaVOdX_xemhxnPbyRAw1ytp39SzGFplFConKAOoYzuDoQIXEvyfrlGu4HQ7L0qA6b07FQUuJcXZNdSj88pS8GLK8Z44wPbimbtn1TmdKOd6UOqg8yEL7E8R9P9VRT6h1Untuf3avBL2VF_1DRex1lzjopJ2N6XUeKIPsyCqIWUyvM-ZdqqOMP9O1qx7pnYknzpjmYxys100Sqdh94iTFg0a7eTaErEO35MqR34soh3y62Avx54RbPOd92jPrki1bkkDJUknSNIjQD6g5iWIwmvn-UQwIsfPprGJXkesUHhJhZgtBdGNQb6x7XpqaYuDEbK9XghHEUQoN6-Iv9AjlMVwxs_qzFJkh9fna1aQjHGBxqRSezzItajeD5CKAqoQWkJIAUEjXCMIwtEWjHK4ozyT9AE7U29eirxrRSeqMS44NmiRWkgzoJXnyeTbNXVCN?></g></svg>